# AST/ASF file generated using VICON BodyLanguage
# -----------------------------------------------
:version 1.10
:name VICON
:units
  mass 1.0
  length 0.45
  angle deg
:documentation
   .ast/.asf automatically generated from VICON data using
   VICON BodyBuilder and BodyLanguage model FoxedUp or BRILLIANT.MOD
:root
   order TX TY TZ RX RY RZ
   axis XYZ
   position 0 0 0  
   orientation 0 0 0 
:bonedata
  begin
     id 1 
     name lhipjoint
     direction 0.528046 -0.759594 0.379717 
     length 2.39752 
     axis 0 0 0  XYZ
  end
  begin
     id 2 
     name lfemur
     direction 0.34202 -0.939693 0  
     length 7.31175  
     axis 0 0 20  XYZ
    dof rx ry rz
    limits (-160.0 20.0)
           (-70.0 70.0)
           (-60.0 70.0)
  end
  begin
     id 3 
     name ltibia
     direction 0.34202 -0.939693 0   
     length 7.52482   
     axis 0 0 20   XYZ
    dof rx
    limits (-10.0 170.0)
  end
  begin
     id 4 
     name lfoot
     direction 0.0675379 -0.185559 0.980309   
     length 2.00961   
     axis -90 7.62852e-016 20   XYZ
    dof rx rz
    limits (-45.0 90.0)
           (-70.0 20.0)
  end
  begin
     id 5 
     name ltoes
     direction 1.5352e-011 -4.22286e-011 1   
     length 1.01383   
     axis -90 7.62852e-016 20   XYZ
    dof rx
    limits (-90.0 20.0)
  end
  begin
     id 6 
     name rhipjoint
     direction -0.510274 -0.769251 0.384544   
     length 2.36742  
     axis 0 0 0  XYZ 
  end
  begin
     id 7 
     name rfemur
     direction -0.34202 -0.939693 0   
     length 7.45325   
     axis 0 0 -20   XYZ
    dof rx ry rz
    limits (-160.0 20.0)
           (-70.0 70.0)
           (-70.0 60.0)
  end
  begin
     id 8 
     name rtibia
     direction -0.34202 -0.939693 0   
     length 7.49587   
     axis 0 0 -20   XYZ
    dof rx
    limits (-10.0 170.0)
 end
 begin
     id 9 
     name rfoot
     direction -0.106475 -0.292536 0.950308   
     length 2.20898  
     axis -90 -7.62852e-016 -20   XYZ
    dof rx rz
    limits (-45.0 90.0)
           (-20.0 70.0)
  end
  begin
     id 10 
     name rtoes
     direction -1.53597e-011 -4.22023e-011 1   
     length 1.10065   
     axis -90 -7.62852e-016 -20   XYZ
    dof rx
    limits (-90.0 20.0)
  end
  begin
     id 11 
     name lowerback
     direction 0.0260024 0.998026 -0.0571652   
     length 2.11214   
     axis 0 0 0   XYZ
    dof rx ry rz
    limits (-20.0 45.0)
           (-30.0 30.0)
           (-30.0 30.0)
  end
  begin
     id 12 
     name upperback
     direction 0.0216202 0.999542 -0.0211766   
     length 2.11689   
     axis 0 0 0   XYZ
    dof rx ry rz
    limits (-20.0 45.0)
           (-30.0 30.0)
           (-30.0 30.0)
  end
  begin
     id 13 
     name thorax
     direction 0.00883312 0.999944 0.00589057   
     length 2.11821   
     axis 0 0 0   XYZ
    dof rx ry rz
    limits (-20.0 45.0)
           (-30.0 30.0)
           (-30.0 30.0)
  end
  begin
     id 14 
     name lowerneck
     direction -0.059386 0.994433 0.0870401   
     length 1.81176   
     axis 0 0 0   XYZ
    dof rx ry rz
    limits (-20.0 45.0)
           (-30.0 30.0)
           (-30.0 30.0)
  end
  begin
     id 15 
     name upperneck
     direction 0.0506457 0.97328 -0.223967   
     length 1.82382   
     axis 0 0 0   XYZ
    dof rx ry rz
    limits (-20.0 45.0)
           (-30.0 30.0)
           (-30.0 30.0)
  end
  begin
     id 16
     name head
     direction 0.0205902 0.996147 -0.0852487  
     length 1.84805  
     axis 0 0 0   XYZ
    dof rx ry rz
    limits (-20.0 45.0)
           (-30.0 30.0)
           (-30.0 30.0)
  end
  begin
     id 17 
     name lclavicle
     direction 0.949493 0.303881 -0.0782325  
     length 3.60584  
     axis 0 0 0   XYZ
    dof ry rz
    limits (-20.0 10.0)
           (0.0 20.0)
  end
  begin
     id 18 
     name lhumerus
     direction 1 -4.48965e-011 1.48782e-027   
     length 4.95681   
     axis 180 -30 -90   XYZ
    dof rx ry rz
    limits (-60.0 90.0)
           (-90.0 90.0)
           (-90.0 90.0)
  end
  begin
     id 19
     name lradius
     direction 1 -4.48952e-011 2.06528e-027   
     length 3.40915   
     axis 180 -30 -90   XYZ
    dof rx
    limits (-10.0 170.0)
  end
  begin
     id 20
     name lwrist
     direction 1 -4.48964e-011 1.28021e-027   
     length 1.70457   
     axis -1.61767e-015 90 90   XYZ
    dof ry
    limits (-180.0 0.0)
 end
  begin
     id 21 
     name lhand
     direction 1 -4.49094e-011 2.54887e-027   
     length 0.616403   
     axis -1.63363e-015 90 90   XYZ
    dof rx rz
    limits (-90.0 90.0)
           (-45.0 45.0)
  end
  begin
     id 22 
     name lfingers
     direction 1 -4.49002e-011 5.11407e-027   
     length 0.49696   
     axis -3.26723e-015 90 90   XYZ
    dof rx
    limits (0.0 90.0)
  end
  begin
     id 23
     name lthumb
     direction 0.707107 -6.34998e-011 0.707107   
     length 0.713539   
     axis -90 45 -2.25915e-014   XYZ
    dof rx rz
    limits (-45.0 45.0)
           (-45.0 45.0)
  end
  begin
     id 24 
     name rclavicle
     direction -0.937751 0.334612 -0.0930482   
     length 3.46287  
     axis 0 0 0   XYZ 
    dof ry rz
    limits (-10.0 20.0)
           (-20.0 0.0)
  end
  begin
     id 25 
     name rhumerus
     direction -1 -4.48962e-011 3.59972e-027  
     length 5.352   
     axis 180 30 90   XYZ
    dof rx ry rz
    limits (-90.0 60.0)
           (-90.0 90.0)
           (-90.0 90.0)
  end
  begin
     id 26 
     name rradius
     direction -1 -4.48987e-011 -3.76925e-027   
     length 3.43721   
     axis 180 30 90   XYZ
    dof rx
    limits (-10.0 170.0)
  end
  begin
     id 27 
     name rwrist
     direction -1 -4.48943e-011 1.28112e-027   
     length 1.7186   
     axis -1.61767e-015 -90 -90   XYZ
    dof ry
    limits (-180.0 0.0)
  end
  begin
     id 28
     name rhand
     direction -1 -4.49027e-011 2.55483e-027   
     length 0.72009   
     axis -1.63363e-015 -90 -90   XYZ
    dof rx rz
    limits (-90.0 90.0)
           (-45.0 45.0)
  end
  begin
     id 29
     name rfingers
     direction -1 -4.48827e-011 5.14506e-027   
     length 0.580555   
     axis -3.26723e-015 -90 -90   XYZ
    dof rx
    limits (0.0 90.0)
  end
  begin
     id 30
     name rthumb
     direction -0.707107 -6.34936e-011 0.707107   
     length 0.833564   
     axis -90 -45 2.25915e-014   XYZ
    dof rx rz
    limits (-45.0 45.0)
           (-45.0 45.0)
  end
:hierarchy
  begin
    root lhipjoint rhipjoint lowerback
    lhipjoint lfemur
    lfemur ltibia
    ltibia lfoot
    lfoot ltoes
    rhipjoint rfemur
    rfemur rtibia
    rtibia rfoot
    rfoot rtoes
    lowerback upperback
    upperback thorax
    thorax lowerneck lclavicle rclavicle
    lowerneck upperneck
    upperneck head
    lclavicle lhumerus
    lhumerus lradius
    lradius lwrist
    lwrist lhand lthumb
    lhand lfingers
    rclavicle rhumerus
    rhumerus rradius
    rradius rwrist
    rwrist rhand rthumb
    rhand rfingers
  end

#!OML:ASF H:\Terrain\Patient Classification 1\Terrain2\Thursday\justin.ASF
:FULLY-SPECIFIED
:DEGREES
944
root -11.9037 17.3291 21.2689 181.806 -18.9461 -176.813
lowerback 7.69286 -0.138943 2.92714
upperback 4.69301 -0.44632 3.3965
thorax 0.555669 -0.4015 1.88915
lowerneck -14.2602 -3.18901 -10.8109
upperneck 38.6454 -9.59582 8.29697
head 17.5644 -5.72764 3.49364
rclavicle 1.59028e-014 -6.36111e-015
rhumerus -30.332 -18.8286 -70.3704
rradius 38.9965
rwrist -16.6104
rhand -22.8273 10.272
rfingers 7.12502
rthumb 3.6099 -19.6772
lclavicle 1.59028e-014 -6.36111e-015
lhumerus -32.2895 -1.33881 84.3619
lradius 38.4872
lwrist 10.0262
lhand -22.3483 26.6107
lfingers 7.12502
lthumb 4.07239 56.5515
rfemur -23.791 8.8236 18.2386
rtibia 43.0788
rfoot -26.0191 16.6179
rtoes -9.87484
lfemur -12.9394 -5.69592 -13.1486
ltibia 33.0966
lfoot -16.6248 -22.2132
ltoes 16.353
945
root -11.9321 17.3314 21.2889 181.781 -18.2486 -177.288
lowerback 7.85359 -0.0755674 2.42489
upperback 4.83478 -0.395182 3.20992
thorax 0.612059 -0.384448 1.97506
lowerneck -14.3442 -3.18221 -10.6014
upperneck 38.4981 -9.50785 8.1328
head 17.4623 -5.66583 3.3936
rclavicle 8.05078e-014 -2.14687e-014
rhumerus -30.2865 -19.0823 -70.571
rradius 38.6973
rwrist -16.2113
rhand -22.6006 10.2551
rfingers 7.12502
rthumb 3.82876 -19.6902
lclavicle 8.05078e-014 -2.14687e-014
lhumerus -31.7933 -0.664515 83.5842
lradius 38.0591
lwrist 8.25472
lhand -20.9925 23.6953
lfingers 7.12502
lthumb 5.38157 53.6069
rfemur -23.6181 7.65543 18.1767
rtibia 43.9253
rfoot -26.9132 13.4521
rtoes -12.1421
lfemur -12.4386 -5.64285 -13.8313
ltibia 32.7731
lfoot -16.6127 -21.6169
ltoes 16.07
946
root -11.9545 17.3408 21.3111 181.89 -17.3904 -177.532
lowerback 7.91169 0.0350061 2.08068
upperback 4.87378 -0.26524 3.06945
thorax 0.616789 -0.323036 2.01392
lowerneck -14.4802 -3.16886 -10.4189
upperneck 38.3898 -9.43029 8.0183
head 17.4039 -5.60803 3.319
rclavicle 1.51076e-014 -1.51076e-014
rhumerus -30.3713 -19.1691 -70.814
rradius 38.6408
rwrist -16.3033
rhand -23.0227 10.5176
rfingers 7.12502
rthumb 3.42116 -19.4347
lclavicle 1.51076e-014 -1.51076e-014
lhumerus -31.4326 -0.57631 83.1917
lradius 38.1275
lwrist 8.43712
lhand -20.7378 22.429
lfingers 7.12502
lthumb 5.62751 52.3343
rfemur -23.6804 6.74971 18.3408
rtibia 44.7746
rfoot -27.1822 10.6803
rtoes -11.2272
lfemur -12.2236 -5.59364 -14.2079
ltibia 32.4992
lfoot -16.2861 -21.0584
ltoes 17.5625
947
root -11.9824 17.3567 21.3263 181.954 -16.5473 -177.587
lowerback 7.75851 0.126852 2.04272
upperback 4.97189 -0.156448 2.91157
thorax 0.799725 -0.266964 1.86277
lowerneck -14.8429 -3.10543 -10.2763
upperneck 38.579 -9.39508 8.01799
head 17.5897 -5.57313 3.29438
rclavicle 7.41467e-014 6.36111e-015
rhumerus -30.3733 -19.3822 -71.1001
rradius 38.5583
rwrist -16.5502
rhand -22.989 10.525
rfingers 7.12502
rthumb 3.4537 -19.4268
lclavicle 7.41467e-014 6.36111e-015
lhumerus -31.1506 -0.746872 82.8213
lradius 38.527
lwrist 9.0749
lhand -20.9312 22.4512
lfingers 7.12502
lthumb 5.44077 52.3614
rfemur -23.7048 5.66571 18.707
rtibia 45.606
rfoot -27.1656 8.36348
rtoes -10.6865
lfemur -12.056 -5.30965 -14.3979
ltibia 32.2915
lfoot -16.1901 -20.6729
ltoes 18.2804
948
root -12.0158 17.3654 21.3415 181.889 -15.596 -177.336
lowerback 7.62412 0.251551 2.41338
upperback 5.07327 0.0131192 2.79736
thorax 0.977979 -0.175036 1.52448
lowerneck -15.182 -3.03103 -9.95692
upperneck 38.8614 -9.34108 7.78208
head 17.7908 -5.54076 3.13303
rclavicle -4.39314e-014 -3.18055e-015
rhumerus -30.2522 -19.8771 -71.3092
rradius 38.0758
rwrist -16.3022
rhand -22.1645 10.6879
rfingers 7.12502
rthumb 4.24989 -19.2495
lclavicle -4.39314e-014 -3.18055e-015
lhumerus -30.8802 -0.915697 82.4018
lradius 38.8544
lwrist 9.46322
lhand -21.2942 23.0902
lfingers 7.12502
lthumb 5.09032 53.0091
rfemur -23.6613 4.64351 19.3704
rtibia 46.4114
rfoot -27.1649 6.36784
rtoes -11.8441
lfemur -11.7987 -4.86346 -14.2992
ltibia 32.1182
lfoot -16.3123 -20.2832
ltoes 18.3776
949
root -12.0402 17.3749 21.3617 181.929 -14.5186 -177.27
lowerback 7.63455 0.440454 2.44869
upperback 5.07545 0.268084 2.70018
thorax 0.972673 -0.0448666 1.38746
lowerneck -15.2908 -3.01886 -9.6743
upperneck 39.0072 -9.35337 7.49484
head 17.8625 -5.55002 2.94214
rclavicle 4.90998e-014 3.18055e-014
rhumerus -30.2801 -20.3217 -71.4425
rradius 37.5511
rwrist -15.5197
rhand -21.8727 11.4525
rfingers 7.12502
rthumb 4.53166 -18.4791
lclavicle 4.90998e-014 3.18055e-014
lhumerus -30.6185 -0.843724 81.987
lradius 38.9671
lwrist 9.28194
lhand -21.2157 23.1307
lfingers 7.12502
lthumb 5.16612 53.0477
rfemur -23.7818 3.95088 19.8125
rtibia 47.2051
rfoot -26.8009 5.14209
rtoes -9.55082
lfemur -11.5978 -4.63766 -14.3893
ltibia 31.9815
lfoot -16.5016 -19.5407
ltoes 18.2381
950
root -12.0526 17.3831 21.3821 182.063 -13.7017 -177.32
lowerback 7.66282 0.562183 2.2349
upperback 5.04156 0.426053 2.63312
thorax 0.918237 0.0324155 1.42741
lowerneck -15.364 -3.01646 -9.70888
upperneck 39.0057 -9.43914 7.67379
head 17.9101 -5.57284 3.01028
rclavicle -3.02153e-014 -3.89618e-014
rhumerus -30.403 -20.6339 -71.5756
rradius 37.1535
rwrist -14.5967
rhand -21.5656 12.0321
rfingers 7.12502
rthumb 4.82827 -17.8928
lclavicle -3.02153e-014 -3.89618e-014
lhumerus -30.3198 -0.362084 81.4734
lradius 38.9294
lwrist 8.22714
lhand -20.5634 22.1112
lfingers 7.12502
lthumb 5.7959 52.0119
rfemur -24.0209 3.16699 20.2108
rtibia 47.9948
rfoot -26.2127 3.81206
rtoes -4.82528
lfemur -11.5672 -4.77799 -14.55
ltibia 31.9356
lfoot -16.8079 -18.6667
ltoes 17.7793
951
root -12.0703 17.3775 21.3968 182.155 -13.049 -177.269
lowerback 7.6085 0.610246 2.27589
upperback 5.01405 0.497647 2.53327
thorax 0.920147 0.0733011 1.29669
lowerneck -15.366 -2.95969 -9.63065
upperneck 38.873 -9.41833 7.84253
head 17.8397 -5.52976 3.07671
rclavicle 3.51849e-014 -2.46493e-014
rhumerus -30.5675 -20.7603 -71.8409
rradius 37.064
rwrist -14.3797
rhand -20.6702 11.6733
rfingers 7.12502
rthumb 5.69277 -18.2303
lclavicle 3.51849e-014 -2.46493e-014
lhumerus -30.1423 -0.0188778 80.9224
lradius 38.9988
lwrist 7.66497
lhand -20.18 21.415
lfingers 7.12502
lthumb 6.16601 51.3053
rfemur -24.0664 2.10682 20.745
rtibia 48.7529
rfoot -25.9648 2.11965
rtoes -2.53118
lfemur -11.5874 -4.82757 -14.5973
ltibia 31.9889
lfoot -17.0854 -18.0959
ltoes 17.7849
952
root -12.0957 17.3641 21.4089 182.157 -12.3309 -177.349
lowerback 7.53439 0.680932 2.26354
upperback 5.0446 0.589464 2.39928
thorax 0.993022 0.122405 1.15982
lowerneck -15.3298 -2.895 -9.33141
upperneck 38.7815 -9.29079 7.61392
head 17.7207 -5.46042 2.9416
rclavicle -1.39149e-014 9.54166e-015
rhumerus -30.7173 -20.7164 -72.1775
rradius 37.2561
rwrist -14.7625
rhand -20.0052 10.665
rfingers 7.12502
rthumb 6.33476 -19.2203
lclavicle -1.39149e-014 9.54166e-015
lhumerus -30.0207 0.141694 80.5089
lradius 39.178
lwrist 7.87396
lhand -20.536 22.181
lfingers 7.12502
lthumb 5.82238 52.081
rfemur -23.8699 0.936765 21.0811
rtibia 49.4884
rfoot -26.0877 0.787345
rtoes -3.60635
lfemur -11.4899 -4.71024 -14.8339
ltibia 32.0871
lfoot -17.4588 -17.5424
ltoes 17.2818
953
root -12.1185 17.3554 21.4256 182.063 -11.7736 -177.424
lowerback 7.51883 0.698827 2.24529
upperback 5.13536 0.601637 2.28932
thorax 1.09651 0.127537 1.05632
lowerneck -15.477 -2.82305 -9.06505
upperneck 38.895 -9.18354 7.36222
head 17.7715 -5.41289 2.79539
rclavicle 1.48095e-014 -2.38542e-014
rhumerus -30.7682 -20.7609 -72.5105
rradius 37.2704
rwrist -14.8663
rhand -19.6696 10.0105
rfingers 7.12502
rthumb 6.65876 -19.8648
lclavicle 1.48095e-014 -2.38542e-014
lhumerus -29.7495 0.397952 80.1283
lradius 39.2583
lwrist 8.15248
lhand -20.9791 22.8809
lfingers 7.12502
lthumb 5.39449 52.7923
rfemur -23.5429 -0.187207 21.3547
rtibia 50.1977
rfoot -26.2015 0.0363053
rtoes -4.18704
lfemur -11.3416 -4.75564 -15.0631
ltibia 32.2096
lfoot -17.834 -16.9445
ltoes 16.308
954
root -12.1361 17.3525 21.4402 182.044 -11.364 -177.494
lowerback 7.49138 0.656957 2.22178
upperback 5.14988 0.545426 2.17399
thorax 1.12736 0.101782 0.954341
lowerneck -15.6175 -2.75489 -8.87896
upperneck 39.04 -9.14451 7.24677
head 17.8648 -5.39454 2.71179
rclavicle -2.11706e-014 -3.49861e-014
rhumerus -30.9261 -20.7247 -72.8687
rradius 37.1265
rwrist -14.7099
rhand -19.591 10.2107
rfingers 7.12502
rthumb 6.73462 -19.6622
lclavicle -2.11706e-014 -3.49861e-014
lhumerus -29.4853 0.762138 79.6442
lradius 39.1279
lwrist 8.00616
lhand -20.33 21.4313
lfingers 7.12502
lthumb 6.02126 51.3257
rfemur -23.2726 -1.21151 21.5888
rtibia 50.8553
rfoot -26.0907 -0.032153
rtoes -1.6972
lfemur -11.2812 -4.57793 -15.2366
ltibia 32.3232
lfoot -18.1485 -16.5676
ltoes 14.8871
